<svg xmlns="http://www.w3.org/2000/svg" viewBox="0 0 587.65 644.77"><defs><style>.cls-1,.cls-2{fill:none;stroke:#000;stroke-linejoin:round;stroke-width:30px;}.cls-2{stroke-linecap:round;}</style></defs><g id="Layer_2" data-name="Layer 2"><g id="Icons"><g id="Lid"><rect class="cls-1" x="15" y="67.03" width="557.65" height="53.86" rx="26.93"/><path class="cls-1" d="M253.24,15h81.18a25.76,25.76,0,0,1,25.76,25.76V67a0,0,0,0,1,0,0H227.47a0,0,0,0,1,0,0V40.76A25.76,25.76,0,0,1,253.24,15Z"/></g><polygon class="cls-1" points="466.76 629.77 125.12 629.77 39.38 120.88 548.27 120.88 466.76 629.77"/><line class="cls-2" x1="163.24" y1="186.77" x2="197.12" y2="562.76"/><line class="cls-2" x1="428.96" y1="186.77" x2="395.08" y2="562.76"/><line class="cls-2" x1="293.82" y1="178.76" x2="293.82" y2="564.18"/></g></g></svg>