<svg xmlns="http://www.w3.org/2000/svg" viewBox="0 0 583.68 749.35"><defs><style>.cls-1,.cls-2{fill:none;stroke:#000;stroke-linejoin:round;stroke-width:30px;}.cls-2{stroke-linecap:round;}</style></defs><g id="Layer_2" data-name="Layer 2"><g id="Icons"><g id="Lid"><rect class="cls-1" x="15.7" y="73.82" width="557.65" height="53.86" rx="26.93" transform="translate(24.77 -54.58) rotate(11.05)"/><path class="cls-1" d="M264.08,22.78h81.18A25.76,25.76,0,0,1,371,48.54V74.8a0,0,0,0,1,0,0H238.32a0,0,0,0,1,0,0V48.54A25.76,25.76,0,0,1,264.08,22.78Z" transform="matrix(0.98, 0.19, -0.19, 0.98, 15, -57.48)"/></g><polygon class="cls-1" points="442.39 734.35 100.74 734.35 15 225.46 523.89 225.46 442.39 734.35"/><line class="cls-2" x1="138.86" y1="291.35" x2="172.74" y2="667.34"/><line class="cls-2" x1="404.58" y1="291.35" x2="370.7" y2="667.34"/><line class="cls-2" x1="269.44" y1="283.34" x2="269.44" y2="668.75"/></g></g></svg>