<?xml version="1.0" encoding="utf-8"?>
<!-- Generator: Adobe Illustrator 26.0.1, SVG Export Plug-In . SVG Version: 6.00 Build 0)  -->
<svg version="1.1" id="Layer_3" xmlns="http://www.w3.org/2000/svg" xmlns:xlink="http://www.w3.org/1999/xlink" x="0px" y="0px"
	 viewBox="0 0 100 100" style="enable-background:new 0 0 100 100;" xml:space="preserve">
<style type="text/css">
	.st0{fill:none;stroke:#000000;stroke-width:3;stroke-linejoin:round;stroke-miterlimit:10;}
	.st1{fill:none;stroke:#000000;stroke-width:3.8297;stroke-linecap:round;stroke-miterlimit:10;}
	.st2{fill:none;stroke:#000000;stroke-width:4;stroke-linecap:round;stroke-miterlimit:10;}
</style>
<path class="st0" d="M69.9,45.1c0-10.9-8.9-19.8-19.8-19.8s-19.8,8.9-19.8,19.8S40.7,59.5,41,71.4h18.1C59.1,60.1,69.9,57,69.9,45.1
	z"/>
<line class="st1" x1="42.2" y1="76.4" x2="57.9" y2="76.4"/>
<line class="st1" x1="43.9" y1="81.9" x2="56.2" y2="81.9"/>
<line class="st1" x1="45.5" y1="87.5" x2="54.6" y2="87.5"/>
<line class="st2" x1="50" y1="13.6" x2="50" y2="19.4"/>
<line class="st2" x1="67.4" y1="18.9" x2="64.2" y2="23.7"/>
<line class="st2" x1="78.9" y1="33.1" x2="73.6" y2="35.2"/>
<line class="st2" x1="80.5" y1="51.2" x2="74.9" y2="50"/>
<line class="st2" x1="32.6" y1="18.9" x2="35.8" y2="23.7"/>
<line class="st2" x1="21.1" y1="33.1" x2="26.4" y2="35.2"/>
<line class="st2" x1="19.5" y1="51.2" x2="25.1" y2="50"/>
</svg>
