<?xml version="1.0" encoding="utf-8"?>
<!-- Generator: Adobe Illustrator 26.0.1, SVG Export Plug-In . SVG Version: 6.00 Build 0)  -->
<svg version="1.1" id="Layer_1" xmlns="http://www.w3.org/2000/svg" xmlns:xlink="http://www.w3.org/1999/xlink" x="0px" y="0px"
	 viewBox="0 0 100 100" style="enable-background:new 0 0 100 100;" xml:space="preserve">
<style type="text/css">
	.st0{fill:#FFFFFF;}
</style>
<g>
	<ellipse transform="matrix(0.7071 -0.7071 0.7071 0.7071 -20.7106 49.9999)" class="st0" cx="50" cy="50" rx="42" ry="42"/>
	<path d="M50,11c21.5,0,39,17.5,39,39S71.5,89,50,89S11,71.5,11,50S28.5,11,50,11 M50,5C25.2,5,5,25.2,5,50s20.1,45,45,45
		s45-20.1,45-45S74.8,5,50,5L50,5z"/>
</g>
<g>
	<path d="M45.5,35.2c-1.2-1.1-1.7-2.4-1.7-4c0-1.6,0.6-3,1.7-4.1c1.2-1.1,2.7-1.6,4.5-1.6c1.8,0,3.3,0.5,4.4,1.6
		c1.2,1.1,1.7,2.4,1.7,4.1c0,1.6-0.6,2.9-1.7,4c-1.2,1.1-2.6,1.6-4.4,1.6C48.2,36.8,46.7,36.3,45.5,35.2z M55.2,41.9V73
		c0,0.8-0.7,1.5-1.5,1.5h-7.5c-0.8,0-1.5-0.7-1.5-1.5V41.9c0-0.8,0.7-1.5,1.5-1.5h7.5C54.6,40.4,55.2,41,55.2,41.9z"/>
</g>
</svg>
