<?xml version="1.0" encoding="utf-8"?>
<!-- Generator: Adobe Illustrator 26.0.1, SVG Export Plug-In . SVG Version: 6.00 Build 0)  -->
<svg version="1.1" id="Layer_2" xmlns="http://www.w3.org/2000/svg" xmlns:xlink="http://www.w3.org/1999/xlink" x="0px" y="0px"
	 viewBox="0 0 1366 324.6" style="enable-background:new 0 0 1366 324.6;" xml:space="preserve">
<style type="text/css">
	.st0{fill:none;stroke:#000000;stroke-width:3.279;stroke-miterlimit:10;}
	.st1{fill:none;stroke:#000000;stroke-width:3.2973;stroke-miterlimit:10;}
	.st2{fill:none;stroke:#000000;stroke-width:3.4057;stroke-miterlimit:10;}
	.st3{fill:none;stroke:#000000;stroke-width:3.839;stroke-miterlimit:10;}
</style>
<g>
	<path class="st0" d="M239.3,69.2L239.3,69.2c0-14.1-11.4-25.4-25.4-25.4H34.7h0c-17.1,0-31,13.9-31,31v0v72.9v0
		c0,17.1,13.9,31,31,31h0h152.4c11.7,0,21.3,9.5,21.3,21.3v28.9c0,11.7-9.5,21.3-21.3,21.3H9c-2.9,0-5.2,2.3-5.2,5.2v0
		c0,14.2,11.5,25.7,25.7,25.7h178.9h0c17.1,0,31-13.9,31-31v0v-71.4v0c0-17.1-13.9-31-31-31h0H57.5c-12.6,0-22.8-10.2-22.8-22.8
		V97.5c0-12.6,10.2-22.8,22.8-22.8h176.3C236.9,74.7,239.3,72.2,239.3,69.2z"/>
	<path class="st1" d="M315.4,228.1V47.4c0-2-1.6-3.7-3.7-3.7h0c-15.4,0-27.8,12.5-27.8,27.8v177.4v0.5c0,17.4,14.1,31.5,31.5,31.5h0
		h177.4c15.4,0,27.8-12.5,27.8-27.8v-0.5c0-2-1.6-3.7-3.7-3.7H336.1C324.7,248.9,315.4,239.6,315.4,228.1z"/>
	<path class="st2" d="M566.2,76.2V252c0,15.9,12.9,28.9,28.9,28.9h1V179.1h175.8v101.8h0c15.9,0,28.9-12.9,28.9-28.9V76.2
		c0-18-14.6-32.5-32.5-32.5H598.8C580.8,43.7,566.2,58.3,566.2,76.2z M771.9,146.6H596.2v-48c0-13.2,10.7-23.9,23.9-23.9h128
		c13.2,0,23.9,10.7,23.9,23.9V146.6z"/>
	<path class="st2" d="M1082.6,71c0-15.1-12.2-27.3-27.3-27.3h-74.5h-32h-74c-15.1,0-27.3,12.2-27.3,27.3v3.7h101.3v206.2h32V74.7
		h101.8V71z"/>
	<path class="st3" d="M1180.5,74.1h181.8v-5c0-14.1-11.4-25.4-25.5-25.4h-174.7c-18.7,0-33.8,15.2-33.8,33.8V247
		c0,18.7,15.2,33.8,33.8,33.8h174.7c14.1,0,25.5-11.4,25.5-25.4v-6h-181.8c-11.7,0-21.3-9.5-21.3-21.3v-50.6h86.1v-30.4h-86.1V95.4
		C1159.2,83.7,1168.7,74.1,1180.5,74.1z"/>
</g>
</svg>
