<svg xmlns="http://www.w3.org/2000/svg" xmlns:xlink="http://www.w3.org/1999/xlink" viewBox="0 0 113.8 113.8"><defs><style>.cls-1,.cls-3,.cls-4,.cls-5{fill:none;}.cls-2{clip-path:url(#clip-path);}.cls-3,.cls-4,.cls-5{stroke:#1d1d1b;stroke-miterlimit:10;}.cls-3,.cls-4{stroke-width:2.19px;}.cls-4,.cls-5{stroke-linecap:round;}.cls-5{stroke-width:0.36px;}</style><clipPath id="clip-path" transform="translate(0)"><rect class="cls-1" width="113.8" height="113.8"/></clipPath></defs><g id="Layer_2" data-name="Layer 2"><g id="Layer_1-2" data-name="Layer 1"><g id="alarm"><g class="cls-2"><g class="cls-2"><rect class="cls-3" x="1.09" y="1.09" width="111.61" height="111.61" rx="14.2"/><path class="cls-3" d="M85.39,60.88A28.27,28.27,0,1,1,57.12,32.61,28.27,28.27,0,0,1,85.39,60.88Z" transform="translate(0)"/><line class="cls-4" x1="76.35" y1="81.59" x2="80.92" y2="89.14"/><line class="cls-4" x1="37.94" y1="81.59" x2="33.37" y2="89.14"/><polyline class="cls-4" points="57.12 39.77 57.12 60.88 66.25 70.01"/><path class="cls-3" d="M80.33,37.82a6.72,6.72,0,0,0-11.22-7.31.87.87,0,0,0,.36,1.34A30.63,30.63,0,0,1,79,38,.88.88,0,0,0,80.33,37.82Z" transform="translate(0)"/><line class="cls-4" x1="76.35" y1="81.59" x2="80.92" y2="89.14"/><line class="cls-4" x1="37.94" y1="81.59" x2="33.37" y2="89.14"/><polyline class="cls-4" points="57.12 39.77 57.12 60.88 66.25 70.01"/><path class="cls-3" d="M45,30.54a6.71,6.71,0,0,0-11.13,7.31.87.87,0,0,0,1.39.24,30.75,30.75,0,0,1,9.4-6.18A.87.87,0,0,0,45,30.54Z" transform="translate(0)"/><path class="cls-5" d="M38.19,23.16a6.73,6.73,0,0,0-7.42,2.35,6.65,6.65,0,0,0-1.35,3.81" transform="translate(0)"/><path class="cls-5" d="M40,18.23a12,12,0,0,0-15.63,11" transform="translate(0)"/><path class="cls-5" d="M77.09,23.16a6.73,6.73,0,0,1,8.77,6.16" transform="translate(0)"/><path class="cls-5" d="M75.32,18.23a12,12,0,0,1,15.62,11" transform="translate(0)"/><path class="cls-5" d="M27.24,75.53a6.72,6.72,0,0,1-3.12-10.25" transform="translate(0)"/><path class="cls-5" d="M25.59,80.51A12,12,0,0,1,20,62.24" transform="translate(0)"/><path class="cls-5" d="M89.76,65.63a6.71,6.71,0,0,1-3,10.28" transform="translate(0)"/><path class="cls-5" d="M93.87,62.36a12,12,0,0,1-5.38,18.33" transform="translate(0)"/></g></g></g></g></g></svg>