<svg xmlns="http://www.w3.org/2000/svg" xmlns:xlink="http://www.w3.org/1999/xlink" viewBox="0 0 111.1 111.1"><defs><style>.cls-1,.cls-4,.cls-5{fill:none;}.cls-2{clip-path:url(#clip-path);}.cls-3{fill:#fff;}.cls-4,.cls-5{stroke:#1d1d1b;stroke-miterlimit:10;stroke-width:2.13px;}.cls-5{stroke-linecap:round;}</style><clipPath id="clip-path" transform="translate(0)"><rect class="cls-1" width="111.1" height="111.1"/></clipPath></defs><g id="Layer_2" data-name="Layer 2"><g id="Layer_1-2" data-name="Layer 1"><g id="Bring"><g class="cls-2"><g class="cls-2"><path class="cls-3" d="M79.48,54.57a22.62,22.62,0,0,0-16.22-6.72,17.78,17.78,0,0,0-14.59,8.36" transform="translate(0)"/><path class="cls-4" d="M79.48,54.57a22.62,22.62,0,0,0-16.22-6.72,17.78,17.78,0,0,0-14.59,8.36" transform="translate(0)"/><rect class="cls-4" x="1.07" y="1.07" width="108.97" height="108.97" rx="13.86"/><path class="cls-3" d="M37.69,82.2,41.75,78a1.67,1.67,0,0,1,1.19-.51H65.77a8.08,8.08,0,0,0,2.34-.34A13.33,13.33,0,0,0,72.39,75c2.22-1.81,9.44-7.34,10.63-9.4,1.1-1.91,7.13-12.28,8-13.85A.24.24,0,0,0,91,51.4a9.26,9.26,0,0,0-7.45-1.52c-3.51,1-5.76,5.29-6.35,6.57a1.51,1.51,0,0,1-.5.59l-9.26,6.37" transform="translate(0)"/><path class="cls-4" d="M37.69,82.2,41.75,78a1.67,1.67,0,0,1,1.19-.51H65.77a8.08,8.08,0,0,0,2.34-.34A13.33,13.33,0,0,0,72.39,75c2.22-1.81,9.44-7.34,10.63-9.4,1.1-1.91,7.13-12.28,8-13.85A.24.24,0,0,0,91,51.4a9.26,9.26,0,0,0-7.45-1.52c-3.51,1-5.76,5.29-6.35,6.57a1.51,1.51,0,0,1-.5.59l-9.26,6.37" transform="translate(0)"/><path class="cls-3" d="M61.33,35.24a6.16,6.16,0,0,1,.7-6.1c2.18-3.33,6.88-3.77,8.35-4.09s9-2,11.13-3.06a.21.21,0,0,1,.3.18c0,1.79,0,9.9-2.8,13.15-3.19,3.66-7.56,5.11-13,4.13" transform="translate(0)"/><path class="cls-5" d="M61.33,35.24a6.16,6.16,0,0,1,.7-6.1c2.18-3.33,6.88-3.77,8.35-4.09s9-2,11.13-3.06a.21.21,0,0,1,.3.18c0,1.79,0,9.9-2.8,13.15-3.19,3.66-7.56,5.11-13,4.13" transform="translate(0)"/><path class="cls-5" d="M61.54,47.85s-.25-7.9,2.78-11.47,7.3-5,8.73-5.61a19.54,19.54,0,0,0,4.46-3" transform="translate(0)"/><path class="cls-3" d="M59.14,38.71a.12.12,0,0,1,0,.16c-.64.36-4.24,2.26-7.39.93s-4.45-5-4.66-5.69a.12.12,0,0,1,.07-.15c.69-.33,4.77-2.12,7.49-.72s4.27,4.83,4.54,5.47" transform="translate(0)"/><path class="cls-4" d="M59.14,38.71a.12.12,0,0,1,0,.16c-.64.36-4.24,2.26-7.39.93s-4.45-5-4.66-5.69a.12.12,0,0,1,.07-.15c.69-.33,4.77-2.12,7.49-.72S58.87,38.07,59.14,38.71Z" transform="translate(0)"/><path class="cls-3" d="M22.07,68.4s8.76-8.92,12-11.56a13.17,13.17,0,0,1,9.5-3.17c3.93.24,8.47,3.15,9.63,3.93a1.22,1.22,0,0,0,.64.21l11.38.38a4.41,4.41,0,0,1,1.7.4,4.91,4.91,0,0,1,3,4.37,4.38,4.38,0,0,1-1.12,3.28,4.48,4.48,0,0,1-3.23,1.35l-13.07.12" transform="translate(0)"/><path class="cls-5" d="M22.07,68.4s8.76-8.92,12-11.56a13.17,13.17,0,0,1,9.5-3.17c3.93.24,8.47,3.15,9.63,3.93a1.22,1.22,0,0,0,.64.21l11.38.38a4.41,4.41,0,0,1,1.7.4,4.91,4.91,0,0,1,3,4.37,4.38,4.38,0,0,1-1.12,3.28,4.48,4.48,0,0,1-3.23,1.35l-13.07.12" transform="translate(0)"/><polyline class="cls-3" points="33.77 92.12 42.85 82.72 21.69 61.76 12.39 70.84"/><polyline class="cls-5" points="33.77 92.12 42.85 82.72 21.69 61.76 12.39 70.84"/></g></g></g></g></g></svg>