<svg xmlns="http://www.w3.org/2000/svg" xmlns:xlink="http://www.w3.org/1999/xlink" viewBox="0 0 109.21 109.21"><defs><style>.cls-1,.cls-3,.cls-5{fill:none;}.cls-2{clip-path:url(#clip-path);}.cls-3,.cls-5{stroke:#1d1d1b;stroke-miterlimit:10;stroke-width:2.1px;}.cls-4{fill:#fff;}.cls-5{stroke-linecap:round;}.cls-6{fill:#1d1d1b;}</style><clipPath id="clip-path" transform="translate(0)"><rect class="cls-1" width="109.21" height="109.21"/></clipPath></defs><g id="Layer_2" data-name="Layer 2"><g id="Layer_1-2" data-name="Layer 1"><g id="games"><g class="cls-2"><g class="cls-2"><rect class="cls-3" x="1.05" y="1.05" width="107.12" height="107.12" rx="13.62"/><path class="cls-4" d="M51.74,21.5l26,5.58a3.62,3.62,0,0,1,2.79,4.3l-9.22,43A3.61,3.61,0,0,1,67,77.19L41,71.62a3.62,3.62,0,0,1-2.78-4.3l9.22-43a3.63,3.63,0,0,1,4.3-2.79" transform="translate(0)"/><path class="cls-5" d="M51.74,21.5l26,5.58a3.62,3.62,0,0,1,2.79,4.3l-9.22,43A3.61,3.61,0,0,1,67,77.19L41,71.62a3.62,3.62,0,0,1-2.78-4.3l9.22-43A3.63,3.63,0,0,1,51.74,21.5Z" transform="translate(0)"/><path class="cls-4" d="M41.13,28.86l26.6-.57a3.62,3.62,0,0,1,3.7,3.54l.95,44a3.63,3.63,0,0,1-3.55,3.7l-26.6.57a3.61,3.61,0,0,1-3.69-3.54l-.95-44a3.62,3.62,0,0,1,3.54-3.7" transform="translate(0)"/><rect class="cls-5" x="38.06" y="28.57" width="33.85" height="51.25" rx="3.62" transform="translate(-1.16 1.2) rotate(-1.24)"/><path class="cls-4" d="M32,36.77l28.51-5.31a3.64,3.64,0,0,1,4.23,2.9l8.05,43.27a3.62,3.62,0,0,1-2.9,4.22L41.34,87.16a3.62,3.62,0,0,1-4.22-2.9L29.07,41A3.62,3.62,0,0,1,32,36.77" transform="translate(0)"/><path class="cls-5" d="M32,36.77l28.51-5.31a3.64,3.64,0,0,1,4.23,2.9l8.05,43.27a3.62,3.62,0,0,1-2.9,4.22L41.34,87.16a3.62,3.62,0,0,1-4.22-2.9L29.07,41A3.62,3.62,0,0,1,32,36.77Z" transform="translate(0)"/><path class="cls-6" d="M50.45,64.88l.42-2.38s-4.69,2.14-6.6-1.32,3-4.81,3-4.81S44.81,50.44,48.54,50s5.42,1.77,4.87,5.69c0,0,3.73-.7,4.28,2.38s-4.36,4-4.36,4l1.32,2.06Z" transform="translate(0)"/></g></g></g></g></g></svg>