<svg xmlns="http://www.w3.org/2000/svg" xmlns:xlink="http://www.w3.org/1999/xlink" viewBox="0 0 108.94 108.94"><defs><style>.cls-1,.cls-4{fill:none;}.cls-2{clip-path:url(#clip-path);}.cls-3{fill:#fff;}.cls-4{stroke:#1d1d1b;stroke-miterlimit:10;stroke-width:2.09px;}</style><clipPath id="clip-path" transform="translate(0)"><rect class="cls-1" width="108.94" height="108.94"/></clipPath></defs><g id="Layer_2" data-name="Layer 2"><g id="Layer_1-2" data-name="Layer 1"><g id="tiles"><g class="cls-2"><g class="cls-2"><path class="cls-3" d="M76.93,79.37,45.14,74.28A3.81,3.81,0,0,1,42,69.91l5.09-31.79A3.83,3.83,0,0,1,51.44,35l31.79,5.1a3.8,3.8,0,0,1,3.16,4.36L81.3,76.21a3.81,3.81,0,0,1-4.37,3.16" transform="translate(0)"/><path class="cls-4" d="M76.93,79.37,45.14,74.28A3.81,3.81,0,0,1,42,69.91l5.09-31.79A3.83,3.83,0,0,1,51.44,35l31.79,5.1a3.8,3.8,0,0,1,3.16,4.36L81.3,76.21A3.81,3.81,0,0,1,76.93,79.37Z" transform="translate(0)"/><rect class="cls-4" x="1.05" y="1.05" width="106.85" height="106.85" rx="13.59"/><path d="M72.28,64.28H40.09a3.81,3.81,0,0,1-3.81-3.82V28.27a3.8,3.8,0,0,1,3.81-3.81H72.28a3.8,3.8,0,0,1,3.81,3.81V60.46a3.81,3.81,0,0,1-3.81,3.82" transform="translate(0)"/><rect class="cls-4" x="36.28" y="24.46" width="39.82" height="39.82" rx="3.81"/><path class="cls-3" d="M66.57,75.19,36.73,87.26a3.82,3.82,0,0,1-5-2.1L19.69,55.31a3.8,3.8,0,0,1,2.11-5L51.64,38.28a3.81,3.81,0,0,1,5,2.1L68.68,70.22a3.82,3.82,0,0,1-2.11,5" transform="translate(0)"/><path class="cls-4" d="M66.57,75.19,36.73,87.26a3.82,3.82,0,0,1-5-2.1L19.69,55.31a3.8,3.8,0,0,1,2.11-5L51.64,38.28a3.81,3.81,0,0,1,5,2.1L68.68,70.22A3.82,3.82,0,0,1,66.57,75.19Z" transform="translate(0)"/></g></g></g></g></g></svg>