<svg xmlns="http://www.w3.org/2000/svg" xmlns:xlink="http://www.w3.org/1999/xlink" viewBox="0 0 135.91 135.91"><defs><style>.cls-1,.cls-3,.cls-4{fill:none;}.cls-2{clip-path:url(#clip-path);}.cls-3,.cls-4{stroke:#1d1d1b;stroke-miterlimit:10;stroke-width:2.61px;}.cls-4{stroke-linecap:round;}</style><clipPath id="clip-path" transform="translate(0)"><rect class="cls-1" width="135.91" height="135.91"/></clipPath></defs><g id="Layer_2" data-name="Layer 2"><g id="Layer_1-2" data-name="Layer 1"><g id="cycling"><g class="cls-2"><g class="cls-2"><rect class="cls-3" x="1.3" y="1.3" width="133.3" height="133.3" rx="16.95"/><line class="cls-4" x1="58.17" y1="42.21" x2="42.58" y2="42.21"/><path class="cls-4" d="M93,39.35l-9,1.48a.26.26,0,0,0-.2.36l16.29,39.34" transform="translate(0)"/><path class="cls-3" d="M87.69,52H53.5a.26.26,0,0,0-.24.13L36.05,79.27a.28.28,0,0,0,.23.43H64.51a.28.28,0,0,0,.21-.1L87.9,52.42A.28.28,0,0,0,87.69,52Z" transform="translate(0)"/><line class="cls-3" x1="49.38" y1="42.21" x2="64.72" y2="79.6"/><path class="cls-3" d="M118.88,80.53a18.75,18.75,0,1,1-18.75-18.74A18.74,18.74,0,0,1,118.88,80.53Z" transform="translate(0)"/><path class="cls-3" d="M54.52,80.53A18.75,18.75,0,1,1,35.78,61.79,18.74,18.74,0,0,1,54.52,80.53Z" transform="translate(0)"/></g></g></g></g></g></svg>