<svg xmlns="http://www.w3.org/2000/svg" xmlns:xlink="http://www.w3.org/1999/xlink" viewBox="0 0 110.3 131.77"><defs><style>.cls-1,.cls-4,.cls-6{fill:none;}.cls-2{clip-path:url(#clip-path);}.cls-3{fill:#fff;}.cls-4{stroke:#1d1d1b;}.cls-4,.cls-6{stroke-miterlimit:10;stroke-width:2.12px;}.cls-5{clip-path:url(#clip-path-3);}.cls-6{stroke:#000;}</style><clipPath id="clip-path" transform="translate(0 21.47)"><rect class="cls-1" width="110.3" height="110.3"/></clipPath><clipPath id="clip-path-3" transform="translate(0 21.47)"><rect class="cls-1" x="1.06" y="1.06" width="108.19" height="108.19" rx="13.76"/></clipPath></defs><g id="Layer_2" data-name="Layer 2"><g id="Layer_1-2" data-name="Layer 1"><g id="diagram1-1b"><g class="cls-2"><g class="cls-2"><path class="cls-3" d="M99.34,84l-16.72,16.7a.14.14,0,0,1-.19,0L47,65.18A.12.12,0,0,1,47,65L63.71,48.3a.13.13,0,0,1,.18,0L99.34,83.8a.13.13,0,0,1,0,.18" transform="translate(0 21.47)"/><path class="cls-4" d="M99.34,84l-16.72,16.7a.14.14,0,0,1-.19,0L47,65.18A.12.12,0,0,1,47,65L63.71,48.3a.13.13,0,0,1,.18,0L99.34,83.8A.13.13,0,0,1,99.34,84Z" transform="translate(0 21.47)"/><path d="M41.05,43.34,46.84,65,63.75,48.16,42.06,42.33a.82.82,0,0,0-1,1" transform="translate(0 21.47)"/><line class="cls-4" x1="51.5" y1="81.96" x2="87.13" y2="117.64"/><line class="cls-4" x1="59.15" y1="74.42" x2="94.78" y2="110.1"/><rect class="cls-4" x="1.06" y="22.53" width="108.19" height="108.19" rx="13.76"/></g><g class="cls-5"><path class="cls-6" d="M26.68-21S-1,30.2,7.34,41.25s18.19-6,25.15-5c5.33.76,9.9,8.38,9.9,8.38" transform="translate(0 21.47)"/></g></g></g></g></g></svg>