<svg xmlns="http://www.w3.org/2000/svg" xmlns:xlink="http://www.w3.org/1999/xlink" viewBox="0 0 112.18 112.18"><defs><style>.cls-1,.cls-3,.cls-4{fill:none;}.cls-2{clip-path:url(#clip-path);}.cls-3,.cls-4{stroke:#1d1d1b;stroke-miterlimit:10;stroke-width:2.15px;}.cls-4{stroke-linecap:round;}.cls-5{fill:#fff;}</style><clipPath id="clip-path" transform="translate(0)"><rect class="cls-1" width="112.18" height="112.18"/></clipPath></defs><g id="Layer_2" data-name="Layer 2"><g id="Layer_1-2" data-name="Layer 1"><g id="dressed"><g class="cls-2"><g class="cls-2"><rect class="cls-3" x="1.08" y="1.08" width="110.03" height="110.03" rx="13.99"/><path class="cls-4" d="M32,37.88a39.73,39.73,0,0,1,21-6.12c13.11,0,20.41,6.12,20.41,6.12" transform="translate(0)"/><path class="cls-4" d="M52.94,31.76v-4s-4.29-.08-4.29-3.74,4-4,4-4,2-.55,3.79,2.08" transform="translate(0)"/><path class="cls-5" d="M37.21,33.35s4.37-2.62,7-2.62c0,0,2.06,7,8.46,7s9.76-7,9.76-7,5.38.87,8,2.62c0,0-3.5,11.36-2.62,17.48s6.11,14,6.11,14l.88,20.1S39,86.66,36.33,85.79l-.87-20.1S39.83,55.2,39.83,50s-2.62-16.61-2.62-16.61" transform="translate(0)"/><path class="cls-4" d="M37.21,33.35s4.37-2.62,7-2.62c0,0,2.06,7,8.46,7s9.76-7,9.76-7,5.38.87,8,2.62c0,0-3.5,11.36-2.62,17.48s6.11,14,6.11,14l.88,20.1S39,86.66,36.33,85.79l-.87-20.1S39.83,55.2,39.83,50,37.21,33.35,37.21,33.35Z" transform="translate(0)"/></g></g></g></g></g></svg>