<svg xmlns="http://www.w3.org/2000/svg" xmlns:xlink="http://www.w3.org/1999/xlink" viewBox="0 0 110.02 110.02"><defs><style>.cls-1,.cls-3,.cls-4{fill:none;}.cls-2{clip-path:url(#clip-path);}.cls-3,.cls-4{stroke:#1d1d1b;stroke-miterlimit:10;stroke-width:2.11px;}.cls-3{stroke-linecap:round;}</style><clipPath id="clip-path" transform="translate(0)"><rect class="cls-1" width="110.02" height="110.02"/></clipPath></defs><g id="Layer_2" data-name="Layer 2"><g id="Layer_1-2" data-name="Layer 1"><g id="diagram1-2"><g class="cls-2"><line class="cls-3" x1="54.82" y1="71.62" x2="54.82" y2="88.83"/><polyline class="cls-3" points="65.55 79.11 54.82 89.22 44.09 79.11"/><g class="cls-2"><rect class="cls-4" x="1.06" y="1.06" width="107.91" height="107.91" rx="13.72"/><line class="cls-4" x1="108.97" y1="55.01" x2="1.06" y2="55.01"/><line class="cls-3" x1="54.95" y1="33.19" x2="54.95" y2="18.27"/><line class="cls-3" x1="65.78" y1="35.6" x2="74.23" y2="23.29"/><line class="cls-3" x1="74.37" y1="44.82" x2="87.73" y2="38.16"/><line class="cls-3" x1="44.56" y1="35.6" x2="36.11" y2="23.29"/><line class="cls-3" x1="35.97" y1="44.82" x2="22.61" y2="38.16"/><path class="cls-4" d="M55,37.74A17.07,17.07,0,0,0,37.88,54.81H72A17.07,17.07,0,0,0,55,37.74Z" transform="translate(0)"/></g></g></g></g></g></svg>