<svg xmlns="http://www.w3.org/2000/svg" xmlns:xlink="http://www.w3.org/1999/xlink" viewBox="0 0 110.02 110.02"><defs><style>.cls-1,.cls-3,.cls-5{fill:none;}.cls-2{clip-path:url(#clip-path);}.cls-3,.cls-5{stroke:#1d1d1b;stroke-miterlimit:10;}.cls-3{stroke-width:2.11px;}.cls-4{fill:#fff;}.cls-5{stroke-width:0.7px;}</style><clipPath id="clip-path" transform="translate(0)"><rect class="cls-1" width="110.02" height="110.02"/></clipPath></defs><g id="Layer_2" data-name="Layer 2"><g id="Layer_1-2" data-name="Layer 1"><g id="food"><g class="cls-2"><g class="cls-2"><rect class="cls-3" x="1.06" y="1.06" width="107.91" height="107.91" rx="13.72"/><path class="cls-4" d="M94.35,85.19V27.44a4.22,4.22,0,1,0-8.41,0V51.88a9.8,9.8,0,0,0,1.89,5.85l1.3,1.76a5.26,5.26,0,0,1,1,3.12V85.19a2.11,2.11,0,1,0,4.21,0" transform="translate(0)"/><path class="cls-3" d="M94.35,85.19V27.44a4.22,4.22,0,1,0-8.41,0V51.88a9.8,9.8,0,0,0,1.89,5.85l1.3,1.76a5.26,5.26,0,0,1,1,3.12V85.19a2.11,2.11,0,1,0,4.21,0Z" transform="translate(0)"/><path class="cls-4" d="M81.56,50.46A26.93,26.93,0,1,1,54.63,23.53,26.93,26.93,0,0,1,81.56,50.46" transform="translate(0)"/><circle class="cls-3" cx="54.63" cy="50.46" r="26.93"/><path class="cls-4" d="M73.48,50.46A18.85,18.85,0,1,1,54.63,31.61,18.85,18.85,0,0,1,73.48,50.46" transform="translate(0)"/><circle class="cls-5" cx="54.63" cy="50.46" r="18.85"/><path class="cls-4" d="M20.9,85.46h0a2.67,2.67,0,0,1-2.68-2.67V47.34a4.57,4.57,0,0,0-.37-1.83S14.82,37,15.34,37l.8-8.9a.29.29,0,0,1,.58,0l.51,9.13h2.12l.56-9.52a.3.3,0,0,1,.59,0l.25,9.52h2.82l.17-9.41a.29.29,0,0,1,.58,0l.8,9.17c.52,0-2.4,8.44-2.4,8.44a4.92,4.92,0,0,0-.37,2L23.57,82.7a2.67,2.67,0,0,1-2.67,2.76" transform="translate(0)"/><path class="cls-3" d="M20.9,85.46h0a2.67,2.67,0,0,1-2.68-2.67V47.34a4.57,4.57,0,0,0-.37-1.83S14.82,37,15.34,37l.8-8.9a.29.29,0,0,1,.58,0l.51,9.13h2.12l.56-9.52a.3.3,0,0,1,.59,0l.25,9.52h2.82l.17-9.41a.29.29,0,0,1,.58,0l.8,9.17c.52,0-2.4,8.44-2.4,8.44a4.92,4.92,0,0,0-.37,2L23.57,82.7A2.67,2.67,0,0,1,20.9,85.46Z" transform="translate(0)"/></g></g></g></g></g></svg>