<svg xmlns="http://www.w3.org/2000/svg" xmlns:xlink="http://www.w3.org/1999/xlink" viewBox="0 0 115.42 115.42"><defs><style>.cls-1,.cls-3,.cls-5,.cls-7{fill:none;}.cls-2{clip-path:url(#clip-path);}.cls-3,.cls-7{stroke:#1d1d1b;}.cls-3,.cls-5,.cls-7{stroke-miterlimit:10;stroke-width:2.22px;}.cls-4{fill:#1d1d1b;}.cls-5{stroke:#fff;}.cls-6{clip-path:url(#clip-path-3);}.cls-7{stroke-linecap:round;}</style><clipPath id="clip-path" transform="translate(0)"><rect class="cls-1" width="115.42" height="115.42"/></clipPath><clipPath id="clip-path-3" transform="translate(0)"><path class="cls-1" d="M63.78,78.79A15.35,15.35,0,1,0,80.52,65,14.8,14.8,0,0,0,79,64.9,15.35,15.35,0,0,0,63.78,78.79"/></clipPath></defs><g id="Layer_2" data-name="Layer 2"><g id="Layer_1-2" data-name="Layer 1"><g id="play"><g class="cls-2"><g class="cls-2"><rect class="cls-3" x="1.11" y="1.11" width="113.2" height="113.2" rx="14.4"/><path class="cls-4" d="M80.52,65A15.35,15.35,0,1,1,63.78,78.79,15.35,15.35,0,0,1,80.52,65" transform="translate(0)"/><path class="cls-5" d="M80.52,65A15.35,15.35,0,1,1,63.78,78.79,15.35,15.35,0,0,1,80.52,65Z" transform="translate(0)"/></g><g class="cls-6"><path class="cls-5" d="M67.49,46.37A15.35,15.35,0,1,1,50.75,60.18,15.35,15.35,0,0,1,67.49,46.37Z" transform="translate(0)"/><path class="cls-5" d="M95.2,82.85A15.35,15.35,0,1,1,78.46,96.67,15.36,15.36,0,0,1,95.2,82.85Z" transform="translate(0)"/></g><g class="cls-2"><polygon class="cls-3" points="66.69 34.51 40.99 64.25 36.37 26.46 56.09 13.53 66.69 34.51"/><path class="cls-7" d="M41.08,64.25A26.69,26.69,0,0,1,28.39,83.68C16.51,91,17.27,97.91,18.66,101.89" transform="translate(0)"/><line class="cls-3" x1="36.37" y1="26.46" x2="66.69" y2="34.51"/><line class="cls-3" x1="40.99" y1="64.25" x2="56.09" y2="13.53"/></g></g></g></g></g></svg>