<svg xmlns="http://www.w3.org/2000/svg" xmlns:xlink="http://www.w3.org/1999/xlink" viewBox="0 0 111.1 111.1"><defs><style>.cls-1,.cls-3,.cls-4{fill:none;}.cls-2{clip-path:url(#clip-path);}.cls-3,.cls-4{stroke:#1d1d1b;stroke-miterlimit:10;stroke-width:2.13px;}.cls-4{stroke-linecap:round;}.cls-5{fill:#fff;}</style><clipPath id="clip-path" transform="translate(0)"><rect class="cls-1" width="111.1" height="111.1"/></clipPath></defs><g id="Layer_2" data-name="Layer 2"><g id="Layer_1-2" data-name="Layer 1"><g id="tea"><g class="cls-2"><g class="cls-2"><rect class="cls-3" x="1.07" y="1.07" width="108.97" height="108.97" rx="13.86"/><path class="cls-4" d="M87.61,52.84A14.74,14.74,0,1,1,72.87,38.11,14.74,14.74,0,0,1,87.61,52.84Z" transform="translate(0)"/><path class="cls-5" d="M59.71,83.72H43.93A13.17,13.17,0,0,1,30.76,70.56V30.39H72.87V70.56A13.16,13.16,0,0,1,59.71,83.72" transform="translate(0)"/><path class="cls-4" d="M59.71,83.72H43.93A13.17,13.17,0,0,1,30.76,70.56V30.39H72.87V70.56A13.16,13.16,0,0,1,59.71,83.72Z" transform="translate(0)"/></g></g></g></g></g></svg>