<svg xmlns="http://www.w3.org/2000/svg" xmlns:xlink="http://www.w3.org/1999/xlink" viewBox="0 0 103.21 103.21"><defs><style>.cls-1,.cls-4,.cls-5,.cls-6{fill:none;}.cls-2{clip-path:url(#clip-path);}.cls-3{fill:#fff;}.cls-4,.cls-5,.cls-6{stroke:#1d1d1b;stroke-miterlimit:10;}.cls-4{stroke-linecap:round;}.cls-4,.cls-6{stroke-width:1.47px;}.cls-5{stroke-width:1.98px;}</style><clipPath id="clip-path" transform="translate(0)"><rect class="cls-1" width="103.21" height="103.21"/></clipPath></defs><g id="Layer_2" data-name="Layer 2"><g id="Layer_1-2" data-name="Layer 1"><g id="juggling"><g class="cls-2"><g class="cls-2"><path class="cls-3" d="M63.72,65.37a8.44,8.44,0,1,1-8.43-8.43,8.44,8.44,0,0,1,8.43,8.43" transform="translate(0)"/><circle class="cls-4" cx="55.29" cy="65.37" r="8.43"/><rect class="cls-5" x="0.99" y="0.99" width="101.23" height="101.23" rx="12.87"/><path class="cls-3" d="M37.43,86.71l2.79-2.91a1.11,1.11,0,0,1,.82-.36H56.73a5.45,5.45,0,0,0,1.61-.23,9.08,9.08,0,0,0,2.94-1.47c1.53-1.24,6.49-5,7.31-6.46s4.9-8.44,5.53-9.52a.19.19,0,0,0-.05-.23,6.44,6.44,0,0,0-5.13-1c-2.41.67-4,3.64-4.36,4.51a1.06,1.06,0,0,1-.34.41l-6.37,4.38" transform="translate(0)"/><path class="cls-6" d="M37.43,86.71l2.79-2.91a1.11,1.11,0,0,1,.82-.36H56.73a5.45,5.45,0,0,0,1.61-.23,9.08,9.08,0,0,0,2.94-1.47c1.53-1.24,6.49-5,7.31-6.46s4.9-8.44,5.53-9.52a.19.19,0,0,0-.05-.23,6.44,6.44,0,0,0-5.13-1c-2.41.67-4,3.64-4.36,4.51a1.06,1.06,0,0,1-.34.41l-6.37,4.38" transform="translate(0)"/><path class="cls-3" d="M26.69,77.22s6-6.13,8.23-8a9.09,9.09,0,0,1,6.53-2.18c2.7.17,5.82,2.17,6.62,2.71a.77.77,0,0,0,.44.14l7.82.26a3.17,3.17,0,0,1,1.17.27,3.41,3.41,0,0,1,2.08,3,3,3,0,0,1-.78,2.26,3.07,3.07,0,0,1-2.22.92l-9,.09" transform="translate(0)"/><path class="cls-4" d="M26.69,77.22s6-6.13,8.23-8a9.09,9.09,0,0,1,6.53-2.18c2.7.17,5.82,2.17,6.62,2.71a.77.77,0,0,0,.44.14l7.82.26a3.17,3.17,0,0,1,1.17.27,3.41,3.41,0,0,1,2.08,3,3,3,0,0,1-.78,2.26,3.07,3.07,0,0,1-2.22.92l-9,.09" transform="translate(0)"/><polyline class="cls-3" points="34.73 93.52 40.98 87.06 26.43 72.66 20.04 78.9"/><polyline class="cls-4" points="34.73 93.52 40.98 87.06 26.43 72.66 20.04 78.9"/><path class="cls-3" d="M49.47,43.52A8.44,8.44,0,1,1,41,35.09a8.43,8.43,0,0,1,8.44,8.43" transform="translate(0)"/><circle class="cls-4" cx="41.03" cy="43.52" r="8.43"/><path class="cls-3" d="M76.66,20.67a8.43,8.43,0,1,1-8.43-8.43,8.42,8.42,0,0,1,8.43,8.43" transform="translate(0)"/><circle class="cls-4" cx="68.23" cy="20.67" r="8.43"/></g></g></g></g></g></svg>