<svg xmlns="http://www.w3.org/2000/svg" xmlns:xlink="http://www.w3.org/1999/xlink" viewBox="0 0 108.94 108.94"><defs><style>.cls-1,.cls-3,.cls-4{fill:none;}.cls-2{clip-path:url(#clip-path);}.cls-3,.cls-4{stroke:#1d1d1b;stroke-miterlimit:10;stroke-width:2.09px;}.cls-3{stroke-linecap:round;}</style><clipPath id="clip-path" transform="translate(0)"><rect class="cls-1" width="108.94" height="108.94"/></clipPath></defs><g id="Layer_2" data-name="Layer 2"><g id="Layer_1-2" data-name="Layer 1"><g id="morning"><g class="cls-2"><line class="cls-3" x1="54.28" y1="88.34" x2="54.28" y2="71.3"/><polyline class="cls-3" points="43.66 80.92 54.28 70.91 64.91 80.92"/><g class="cls-2"><rect class="cls-4" x="1.05" y="1.05" width="106.85" height="106.85" rx="13.59"/><line class="cls-4" x1="107.9" y1="54.47" x2="1.05" y2="54.47"/><line class="cls-3" x1="54.41" y1="32.87" x2="54.41" y2="18.09"/><line class="cls-3" x1="65.13" y1="35.25" x2="73.5" y2="23.06"/><line class="cls-3" x1="73.64" y1="44.38" x2="86.87" y2="37.79"/><line class="cls-3" x1="44.12" y1="35.25" x2="35.76" y2="23.06"/><line class="cls-3" x1="35.62" y1="44.38" x2="22.39" y2="37.79"/><path class="cls-4" d="M54.41,37.37a16.9,16.9,0,0,0-16.9,16.9h33.8A16.9,16.9,0,0,0,54.41,37.37Z" transform="translate(0)"/></g></g></g></g></g></svg>