<svg xmlns="http://www.w3.org/2000/svg" xmlns:xlink="http://www.w3.org/1999/xlink" viewBox="0 0 132.67 132.67"><defs><style>.cls-1,.cls-3{fill:none;}.cls-2{clip-path:url(#clip-path);}.cls-3{stroke:#1d1d1b;stroke-miterlimit:10;stroke-width:2.55px;}.cls-4{fill:#1d1d1b;}</style><clipPath id="clip-path" transform="translate(0)"><rect class="cls-1" width="132.67" height="132.67"/></clipPath></defs><g id="Layer_2" data-name="Layer 2"><g id="Layer_1-2" data-name="Layer 1"><g id="music"><g class="cls-2"><g class="cls-2"><rect class="cls-3" x="1.27" y="1.27" width="130.13" height="130.13" rx="16.55"/><path class="cls-4" d="M50.27,98.07a7.7,7.7,0,1,1-7.7-7.7,7.7,7.7,0,0,1,7.7,7.7" transform="translate(0)"/><circle class="cls-3" cx="42.57" cy="98.07" r="7.7"/><line class="cls-3" x1="50.27" y1="98.66" x2="50.27" y2="41.19"/><path class="cls-4" d="M92.93,86.61a7.7,7.7,0,1,1-7.7-7.7,7.71,7.71,0,0,1,7.7,7.7" transform="translate(0)"/><circle class="cls-3" cx="85.23" cy="86.61" r="7.7"/><line class="cls-3" x1="92.93" y1="29.74" x2="92.93" y2="87.21"/><polygon class="cls-4" points="92.93 42.7 50.27 53.56 50.27 41.19 92.93 29.74 92.93 42.7"/><polygon class="cls-3" points="92.93 42.7 50.27 53.56 50.27 41.19 92.93 29.74 92.93 42.7"/></g></g></g></g></g></svg>