<svg xmlns="http://www.w3.org/2000/svg" xmlns:xlink="http://www.w3.org/1999/xlink" viewBox="0 0 115.71 115.71"><defs><style>.cls-1,.cls-3,.cls-4,.cls-5{fill:none;}.cls-2{clip-path:url(#clip-path);}.cls-3,.cls-4,.cls-5{stroke:#1d1d1b;stroke-miterlimit:10;}.cls-3,.cls-5{stroke-width:2.22px;}.cls-4{stroke-width:1.11px;}.cls-5{stroke-linecap:round;}</style><clipPath id="clip-path" transform="translate(0 0)"><rect class="cls-1" width="115.71" height="115.71"/></clipPath></defs><g id="Layer_2" data-name="Layer 2"><g id="Layer_1-2" data-name="Layer 1"><g id="pizza"><g class="cls-2"><g class="cls-2"><rect class="cls-3" x="1.11" y="1.11" width="113.49" height="113.49" rx="14.43"/><circle class="cls-3" cx="57.85" cy="57.85" r="47.84"/><path class="cls-3" d="M99.85,57.85a42,42,0,1,1-42-42A42,42,0,0,1,99.85,57.85Z" transform="translate(0 0)"/><line class="cls-4" x1="57.85" y1="10.01" x2="57.85" y2="105.69"/><line class="cls-4" x1="105.69" y1="57.85" x2="10.01" y2="57.85"/><line class="cls-4" x1="91.68" y1="24.02" x2="24.02" y2="91.68"/><line class="cls-4" x1="24.02" y1="24.02" x2="91.68" y2="91.68"/><path class="cls-3" d="M69.22,29.24A3.3,3.3,0,1,1,65.92,26,3.3,3.3,0,0,1,69.22,29.24Z" transform="translate(0 0)"/><path class="cls-3" d="M69.22,84.71a3.3,3.3,0,1,1-3.3-3.3A3.29,3.29,0,0,1,69.22,84.71Z" transform="translate(0 0)"/><path class="cls-3" d="M88.88,44.36a3.3,3.3,0,1,1-3.29-3.3A3.29,3.29,0,0,1,88.88,44.36Z" transform="translate(0 0)"/><path class="cls-3" d="M45.07,31.51a3.3,3.3,0,1,1-3.3-3.3A3.29,3.29,0,0,1,45.07,31.51Z" transform="translate(0 0)"/><path class="cls-3" d="M87.6,73.85a3.3,3.3,0,1,1-3.3-3.3A3.29,3.29,0,0,1,87.6,73.85Z" transform="translate(0 0)"/><path class="cls-3" d="M55.6,73.85a3.3,3.3,0,1,1-3.29-3.3A3.29,3.29,0,0,1,55.6,73.85Z" transform="translate(0 0)"/><path class="cls-3" d="M44,48.82a3.3,3.3,0,1,1-3.29-3.3A3.29,3.29,0,0,1,44,48.82Z" transform="translate(0 0)"/><path class="cls-3" d="M29.92,70.55a3.3,3.3,0,1,1-3.29-3.29A3.29,3.29,0,0,1,29.92,70.55Z" transform="translate(0 0)"/><line class="cls-5" x1="65.92" y1="41.06" x2="71" y2="39.26"/><line class="cls-5" x1="61.11" y1="71.86" x2="64.15" y2="67.41"/><line class="cls-5" x1="75.17" y1="65.89" x2="78.7" y2="61.83"/><line class="cls-5" x1="24.85" y1="46.42" x2="29.92" y2="44.62"/><line class="cls-5" x1="43.45" y1="66.6" x2="40.09" y2="62.39"/><line class="cls-5" x1="40.89" y1="88.66" x2="40.55" y2="83.29"/></g></g></g></g></g></svg>