<svg xmlns="http://www.w3.org/2000/svg" xmlns:xlink="http://www.w3.org/1999/xlink" viewBox="0 0 109.21 109.21"><defs><style>.cls-1,.cls-3,.cls-4{fill:none;}.cls-2{clip-path:url(#clip-path);}.cls-3,.cls-4{stroke:#1d1d1b;stroke-miterlimit:10;stroke-width:2.1px;}.cls-4{stroke-linecap:round;}</style><clipPath id="clip-path" transform="translate(0)"><rect class="cls-1" width="109.21" height="109.21"/></clipPath></defs><g id="Layer_2" data-name="Layer 2"><g id="Layer_1-2" data-name="Layer 1"><g id="stories"><g class="cls-2"><g class="cls-2"><rect class="cls-3" x="1.05" y="1.05" width="107.12" height="107.12" rx="13.62"/><path class="cls-4" d="M17.11,82.12s28.88-6.6,38.78-3.3c0,0,12.85-2.47,36.54,3.3l-6-55.28s-19.8-9.9-29.7-1.65c0,0-8.26-11.55-33.84,4.12Z" transform="translate(0)"/><path class="cls-4" d="M50.94,28.49S44.34,23.54,27,33.44" transform="translate(0)"/><path class="cls-4" d="M50.94,33.44s-6.6-4.95-23.93,5" transform="translate(0)"/><path class="cls-4" d="M50.94,40S44.34,34.26,27,44.17" transform="translate(0)"/><path class="cls-4" d="M50.94,45s-8.25-5-25.58,4.95" transform="translate(0)"/><path class="cls-4" d="M50.94,50.77s-9.08-5-26.4,4.95" transform="translate(0)"/><path class="cls-4" d="M50.94,55.72s-9.9-4.95-27.23,5" transform="translate(0)"/><path class="cls-4" d="M50.94,61.49s-9.9-5-27.23,5" transform="translate(0)"/><path class="cls-4" d="M50.94,68.1s-11.55-5.78-28.88,4.12" transform="translate(0)"/><path class="cls-4" d="M60.84,56.54s9.9-4.95,27.23,5" transform="translate(0)"/><path class="cls-4" d="M60.84,62.32s9.9-5,27.23,4.95" transform="translate(0)"/><path class="cls-4" d="M60.84,68.92s11.55-5.77,28.88,4.13" transform="translate(0)"/><path class="cls-4" d="M60.84,49.94s13.57-3.71,23.29,2.68L81.9,30.35S65.79,24,60.84,29.52Z" transform="translate(0)"/><path class="cls-4" d="M70,39.93c4,.94,13.79,9.6,13.79,9.6l.31,3.09s-7.61-6-23.29-2.68v-10A27.24,27.24,0,0,1,70,39.93Z" transform="translate(0)"/><circle class="cls-4" cx="76.52" cy="34.26" r="2.48"/><path class="cls-4" d="M56.72,25.19l-.82,53a.17.17,0,0,0,.32.1c1.75-2.59,10.85-13,36.21,3.84" transform="translate(0)"/><path class="cls-4" d="M55.89,78.82S45.16,64,17.11,82.12" transform="translate(0)"/></g></g></g></g></g></svg>