<svg xmlns="http://www.w3.org/2000/svg" xmlns:xlink="http://www.w3.org/1999/xlink" viewBox="0 0 113.8 113.8"><defs><style>.cls-1,.cls-3,.cls-4,.cls-8{fill:none;}.cls-2{clip-path:url(#clip-path);}.cls-3,.cls-4{stroke:#1d1d1b;}.cls-3,.cls-8{stroke-linecap:round;}.cls-3,.cls-4,.cls-8{stroke-miterlimit:10;stroke-width:2.19px;}.cls-5{clip-path:url(#clip-path-3);}.cls-6,.cls-7{fill:#1d1d1b;}.cls-7{font-size:19.65px;font-family:Stratos-Bold, Stratos;font-weight:700;}.cls-8{stroke:#fff;}</style><clipPath id="clip-path" transform="translate(0)"><rect class="cls-1" width="113.8" height="113.8"/></clipPath><clipPath id="clip-path-3" transform="translate(0)"><rect class="cls-1" x="34.11" y="34.1" width="45.59" height="45.59" rx="9.29"/></clipPath></defs><g id="Layer_2" data-name="Layer 2"><g id="Layer_1-2" data-name="Layer 1"><g id="diagram1-3"><g class="cls-2"><g class="cls-2"><path class="cls-3" d="M19.21,63.44a39.29,39.29,0,1,0-.29-13.51" transform="translate(0)"/><polyline class="cls-3" points="16.09 69 18.92 63.06 24.57 66.45"/><path class="cls-4" d="M15.29,1.09H98.51a14.19,14.19,0,0,1,14.19,14.19V98.51a14.2,14.2,0,0,1-14.2,14.2H15.29a14.2,14.2,0,0,1-14.2-14.2V15.29a14.2,14.2,0,0,1,14.2-14.2Z"/><rect class="cls-4" x="34.1" y="34.1" width="45.59" height="45.59" rx="9.29"/></g><g class="cls-5"><rect class="cls-6" x="12.88" y="22.71" width="77.81" height="24.37"/></g><text class="cls-7" transform="translate(51.49 69.99)">1</text><g class="cls-2"><line class="cls-8" x1="46.24" y1="37.05" x2="46.24" y2="25.98"/><line class="cls-8" x1="68.09" y1="37.05" x2="68.09" y2="25.98"/></g></g></g></g></g></svg>