<svg xmlns="http://www.w3.org/2000/svg" xmlns:xlink="http://www.w3.org/1999/xlink" viewBox="0 0 110.02 110.02"><defs><style>.cls-1,.cls-4,.cls-5{fill:none;}.cls-2{clip-path:url(#clip-path);}.cls-3{fill:#1d1d1b;}.cls-4,.cls-5{stroke:#1d1d1b;stroke-miterlimit:10;stroke-width:2.11px;}.cls-4{stroke-linecap:round;}.cls-6{fill:#fff;}</style><clipPath id="clip-path" transform="translate(0)"><rect class="cls-1" width="110.02" height="110.02"/></clipPath></defs><g id="Layer_2" data-name="Layer 2"><g id="Layer_1-2" data-name="Layer 1"><g id="snooze_alarm" data-name="snooze alarm"><g class="cls-2"><g class="cls-2"><path class="cls-3" d="M63.54,78.33a8.8,8.8,0,1,1-8.8-8.8,8.8,8.8,0,0,1,8.8,8.8" transform="translate(0)"/><polyline class="cls-4" points="75.03 21.82 85.07 22.87 74.81 32.47 84.67 33.5"/><polyline class="cls-4" points="47.31 15.02 57.38 14.27 48.98 25.54 58.87 24.8"/><polyline class="cls-4" points="23.52 25.41 33.6 24.97 24.86 35.97 34.78 35.54"/><rect class="cls-5" x="1.06" y="1.06" width="107.91" height="107.91" rx="13.72"/><path class="cls-6" d="M76.79,78.33H32.69a.55.55,0,0,1-.43-.91L40.69,67.3a5.87,5.87,0,0,0,1.37-3.78v-19a12.68,12.68,0,1,1,25.35,0v19a5.93,5.93,0,0,0,1.37,3.78l8.44,10.12a.56.56,0,0,1-.43.91" transform="translate(0)"/><path class="cls-4" d="M76.79,78.33H32.69a.55.55,0,0,1-.43-.91L40.69,67.3a5.87,5.87,0,0,0,1.37-3.78v-19a12.68,12.68,0,1,1,25.35,0v19a5.93,5.93,0,0,0,1.37,3.78l8.44,10.12A.56.56,0,0,1,76.79,78.33Z" transform="translate(0)"/></g></g></g></g></g></svg>