<svg xmlns="http://www.w3.org/2000/svg" xmlns:xlink="http://www.w3.org/1999/xlink" viewBox="0 0 110.02 110.02"><defs><style>.cls-1,.cls-3,.cls-4{fill:none;}.cls-2{clip-path:url(#clip-path);}.cls-3,.cls-4{stroke:#1d1d1b;stroke-miterlimit:10;stroke-width:2.11px;}.cls-4{stroke-linecap:round;}</style><clipPath id="clip-path" transform="translate(0)"><rect class="cls-1" width="110.02" height="110.02"/></clipPath></defs><g id="Layer_2" data-name="Layer 2"><g id="Layer_1-2" data-name="Layer 1"><g id="swing"><g class="cls-2"><g class="cls-2"><rect class="cls-3" x="1.06" y="1.06" width="107.91" height="107.91" rx="13.72"/><line class="cls-4" x1="26.54" y1="29.48" x2="80.33" y2="20.36"/><line class="cls-4" x1="78.51" y1="14.89" x2="24.72" y2="21.28"/><path class="cls-4" d="M67.94,16.15s1.45-1.26,2.82-.8A2.71,2.71,0,0,1,72.59,19a6.79,6.79,0,0,1-2.74,3.64s1.82,41,3.65,50.15" transform="translate(0)"/><path class="cls-4" d="M34,20.17a3.77,3.77,0,0,1,2.56-.72c1.83,0,2.74,1.83,2.74,3.65a7,7,0,0,1-3.65,5.47S42,84.18,43,87.83" transform="translate(0)"/><path class="cls-4" d="M69.39,67.77l13.49,3.6a.08.08,0,0,1,0,.15L47.51,93.3,29.56,86.12a.13.13,0,0,1,0-.24Z" transform="translate(0)"/><path class="cls-4" d="M83.07,76V71.76a.19.19,0,0,0-.29-.16L47.51,93.3,29.63,86.15a.26.26,0,0,0-.35.24V90l18.23,7.89Z" transform="translate(0)"/></g></g></g></g></g></svg>