<svg xmlns="http://www.w3.org/2000/svg" xmlns:xlink="http://www.w3.org/1999/xlink" viewBox="0 0 141.99 135.91"><defs><style>.cls-1,.cls-3,.cls-6,.cls-7{fill:none;}.cls-2{clip-path:url(#clip-path);}.cls-3,.cls-6{stroke:#1d1d1b;}.cls-3,.cls-6,.cls-7{stroke-miterlimit:10;}.cls-3,.cls-7{stroke-width:2.61px;}.cls-4{fill:#1d1d1b;}.cls-5{clip-path:url(#clip-path-3);}.cls-6{stroke-width:0.87px;}.cls-7{stroke:#fff;}.cls-8{clip-path:url(#clip-path-5);}</style><clipPath id="clip-path" transform="translate(6.08)"><rect class="cls-1" width="135.91" height="135.91"/></clipPath><clipPath id="clip-path-3" transform="translate(6.08)"><path class="cls-1" d="M23.29,30.83C12.78,42.4,15.85,62.3,30.13,75.28S64.53,89.41,75,77.84s7.44-31.46-6.85-44.45c-7.68-7-17-10.54-25.7-10.54-7.43,0-14.34,2.63-19.2,8"/></clipPath><clipPath id="clip-path-5" transform="translate(6.08)"><path class="cls-1" d="M59,22.13a11.23,11.23,0,1,0,8.32-3.68A11.24,11.24,0,0,0,59,22.13"/></clipPath></defs><g id="Layer_2" data-name="Layer 2"><g id="Layer_1-2" data-name="Layer 1"><g id="tennis"><g class="cls-2"><g class="cls-2"><rect class="cls-3" x="7.39" y="1.3" width="133.3" height="133.3" rx="16.95"/><path class="cls-4" d="M118.25,115.39l-1.71,1.88a4.46,4.46,0,0,1-6.29.3L86.19,95.71a4.46,4.46,0,0,1-.3-6.29l1.71-1.88a4.46,4.46,0,0,1,6.29-.3l24,21.86a4.46,4.46,0,0,1,.31,6.29" transform="translate(6.08)"/><path class="cls-3" d="M118.25,115.39l-1.71,1.88a4.46,4.46,0,0,1-6.29.3L86.19,95.71a4.46,4.46,0,0,1-.3-6.29l1.71-1.88a4.46,4.46,0,0,1,6.29-.3l24,21.86A4.46,4.46,0,0,1,118.25,115.39Z" transform="translate(6.08)"/><path class="cls-3" d="M68.19,33.39c14.29,13,17.36,32.89,6.85,44.45S44.42,88.26,30.13,75.28,12.78,42.4,23.29,30.83,53.9,20.41,68.19,33.39Z" transform="translate(6.08)"/></g><g class="cls-5"><line class="cls-6" x1="22.14" y1="24.26" x2="85.8" y2="82.09"/><line class="cls-6" x1="29.29" y1="16.4" x2="92.94" y2="74.23"/><line class="cls-6" x1="36.56" y1="8.39" x2="100.22" y2="66.23"/><line class="cls-6" x1="14.92" y1="32.21" x2="78.57" y2="90.04"/><line class="cls-6" x1="7.46" y1="40.42" x2="71.11" y2="98.26"/><line class="cls-6" x1="0.55" y1="48.02" x2="64.21" y2="105.85"/><line class="cls-6" x1="16.19" y1="82.19" x2="74.03" y2="18.53"/><line class="cls-6" x1="8.33" y1="75.04" x2="66.17" y2="11.39"/><line class="cls-6" x1="0.32" y1="67.77" x2="58.16" y2="4.12"/><line class="cls-6" x1="24.14" y1="89.41" x2="81.98" y2="25.76"/><line class="cls-6" x1="32.35" y1="96.87" x2="90.19" y2="33.22"/><line class="cls-6" x1="39.95" y1="103.78" x2="97.79" y2="40.12"/></g><g class="cls-2"><path class="cls-3" d="M81.21,62.81s-1.94,15,9,26.06" transform="translate(6.08)"/><path class="cls-3" d="M60.66,85.43s14.77-3.37,26.81,6.49" transform="translate(6.08)"/><path class="cls-4" d="M74.91,21.37A11.23,11.23,0,1,1,59,22.13a11.23,11.23,0,0,1,15.87-.76" transform="translate(6.08)"/><path class="cls-7" d="M74.91,21.37A11.23,11.23,0,1,1,59,22.13,11.23,11.23,0,0,1,74.91,21.37Z" transform="translate(6.08)"/></g><g class="cls-8"><path class="cls-7" d="M75.43,4.75a11.23,11.23,0,1,1-15.87.76A11.24,11.24,0,0,1,75.43,4.75Z" transform="translate(6.08)"/><path class="cls-7" d="M75.68,38.29a11.23,11.23,0,1,1-15.87.76A11.24,11.24,0,0,1,75.68,38.29Z" transform="translate(6.08)"/></g></g></g></g></g></svg>