<svg xmlns="http://www.w3.org/2000/svg" xmlns:xlink="http://www.w3.org/1999/xlink" viewBox="0 0 113.26 113.26"><defs><style>.cls-1,.cls-3,.cls-5{fill:none;}.cls-2{clip-path:url(#clip-path);}.cls-3,.cls-5{stroke:#1d1d1b;stroke-miterlimit:10;stroke-width:2.17px;}.cls-4{fill:#fff;}.cls-5{stroke-linecap:round;}</style><clipPath id="clip-path" transform="translate(0)"><rect class="cls-1" width="113.26" height="113.26"/></clipPath></defs><g id="Layer_2" data-name="Layer 2"><g id="Layer_1-2" data-name="Layer 1"><g id="together"><g class="cls-2"><g class="cls-2"><rect class="cls-3" x="1.09" y="1.09" width="111.08" height="111.08" rx="14.13"/><path class="cls-3" d="M23.41,45.63a20,20,0,1,1,20,19.95A19.95,19.95,0,0,1,23.41,45.63Z" transform="translate(0)"/><path class="cls-4" d="M59.1,85.51l27-27.1s8.1-11.56,1.38-23.7-23.28-7.93-25-7.23-8.4,7.09-8.4,7.09l-5.2,4.9L29.52,58.88s-4.78,4-1.7,7.87,8.4-.45,8.4-.45-4.1,4-1.28,7.58,7.27.75,8.78-1c0,0-4.51,3.86-1.81,7.92s8,.31,8,.31-4,3.59-.91,6.79a5.3,5.3,0,0,0,6.74.73Z" transform="translate(0)"/><path class="cls-3" d="M57,31.21A19.95,19.95,0,1,1,70.79,65.58" transform="translate(0)"/><path class="cls-5" d="M47.05,69.19l-5,5a4.84,4.84,0,1,1-6.85-6.85l5-5" transform="translate(0)"/><path class="cls-5" d="M54.1,76.24l-5,5a4.85,4.85,0,1,1-6.86-6.86l5-5" transform="translate(0)"/><path class="cls-5" d="M61.15,83.29l-5,5a4.85,4.85,0,0,1-6.86-6.86l5-5" transform="translate(0)"/><path class="cls-4" d="M63.23,86.85l-.43.43a4.56,4.56,0,0,1-6.43,0L51,81.86a4.54,4.54,0,0,1,0-6.42l.44-.44a4.54,4.54,0,0,1,6.42,0l5.42,5.42a4.56,4.56,0,0,1,0,6.43" transform="translate(0)"/><rect class="cls-3" x="52.24" y="72.77" width="9.7" height="16.75" rx="4.54" transform="translate(-40.65 64.14) rotate(-45)"/><path class="cls-4" d="M70.28,79.79l-.43.44a4.54,4.54,0,0,1-6.42,0L58,74.81a4.54,4.54,0,0,1,0-6.43l.43-.43a4.54,4.54,0,0,1,6.42,0l5.42,5.42a4.53,4.53,0,0,1,0,6.42" transform="translate(0)"/><rect class="cls-3" x="59.3" y="65.71" width="9.7" height="16.75" rx="4.54" transform="translate(-33.6 67.06) rotate(-45)"/><path class="cls-4" d="M77.33,72.74l-.43.44a4.54,4.54,0,0,1-6.42,0l-5.42-5.42a4.54,4.54,0,0,1,0-6.43l.43-.43a4.53,4.53,0,0,1,6.42,0l5.42,5.42a4.53,4.53,0,0,1,0,6.42" transform="translate(0)"/><rect class="cls-3" x="66.35" y="58.66" width="9.7" height="16.75" rx="4.54" transform="translate(-26.55 69.98) rotate(-45)"/><path class="cls-4" d="M84.39,65.69l-.44.43a4.53,4.53,0,0,1-6.42,0L72.11,60.7a4.54,4.54,0,0,1,0-6.42l.43-.43a4.54,4.54,0,0,1,6.43,0l5.42,5.42a4.54,4.54,0,0,1,0,6.42" transform="translate(0)"/><rect class="cls-3" x="73.4" y="51.61" width="9.7" height="16.75" rx="4.54" transform="translate(-19.5 72.9) rotate(-45)"/><path class="cls-4" d="M40,62.13,35.15,67a5,5,0,0,1-6.89.24,4.85,4.85,0,0,1-.11-7L33.39,55l.62-.62L49.59,38.77l7.72,7c.86.82,4.13,2.93,6.62-.19a5.34,5.34,0,0,0,.82-5,6.77,6.77,0,0,0-1.46-2.53l-6.22-6.91" transform="translate(0)"/><path class="cls-5" d="M40,62.13,35.15,67a5,5,0,0,1-6.89.24,4.85,4.85,0,0,1-.11-7L33.39,55l.62-.62L49.59,38.77l7.72,7c.86.82,4.13,2.93,6.62-.19a5.34,5.34,0,0,0,.82-5,6.77,6.77,0,0,0-1.46-2.53l-6.22-6.91" transform="translate(0)"/></g></g></g></g></g></svg>