<svg xmlns="http://www.w3.org/2000/svg" xmlns:xlink="http://www.w3.org/1999/xlink" viewBox="0 0 113.26 113.26"><defs><style>.cls-1,.cls-3,.cls-4,.cls-6{fill:none;}.cls-2{clip-path:url(#clip-path);}.cls-3,.cls-4,.cls-6{stroke:#1d1d1b;stroke-miterlimit:10;}.cls-3,.cls-4{stroke-width:2.17px;}.cls-4,.cls-6{stroke-linecap:round;}.cls-5{fill:#1d1d1b;}.cls-6{stroke-width:0.72px;}</style><clipPath id="clip-path" transform="translate(0)"><rect class="cls-1" width="113.26" height="113.26"/></clipPath></defs><g id="Layer_2" data-name="Layer 2"><g id="Layer_1-2" data-name="Layer 1"><g id="toilet"><g class="cls-2"><g class="cls-2"><rect class="cls-3" x="1.09" y="1.09" width="111.08" height="111.08" rx="14.13"/><rect class="cls-4" x="26.53" y="31.96" width="18.85" height="25.7"/><path class="cls-4" d="M27.16,32H45.38V27.08a.26.26,0,0,0-.26-.26h-18a2.36,2.36,0,0,0-2.35,2.35v.44A2.35,2.35,0,0,0,27.16,32Z" transform="translate(0)"/><path class="cls-5" d="M48.8,38.82a1.71,1.71,0,1,1-1.71-1.72,1.71,1.71,0,0,1,1.71,1.72" transform="translate(0)"/><circle class="cls-4" cx="47.09" cy="38.82" r="1.71"/><path class="cls-4" d="M81.82,73.09H52a6.53,6.53,0,0,1-6.53-6.52v-8.9H88.34v8.9A6.52,6.52,0,0,1,81.82,73.09Z" transform="translate(0)"/><path class="cls-5" d="M88.43,57.67H50.29a2.35,2.35,0,0,1-2.35-2.35v-.44a2.35,2.35,0,0,1,2.35-2.35H88.43a2.35,2.35,0,0,1,2.35,2.35v.44a2.35,2.35,0,0,1-2.35,2.35" transform="translate(0)"/><rect class="cls-6" x="47.94" y="52.53" width="42.84" height="5.14" rx="2.35"/><path class="cls-4" d="M74.64,90.23s-3.43-10.29-1.72-17.14h-12s-2,13.71-4.44,17.14Z" transform="translate(0)"/><path class="cls-4" d="M28.07,57.67s.3,5.14,3.73,8.57,8.56,6.85,10.28,10.28,0,13.71,0,13.71H56.49" transform="translate(0)"/></g></g></g></g></g></svg>