<svg xmlns="http://www.w3.org/2000/svg" xmlns:xlink="http://www.w3.org/1999/xlink" viewBox="0 0 110.02 110.02"><defs><style>.cls-1,.cls-3,.cls-4{fill:none;}.cls-2{clip-path:url(#clip-path);}.cls-3,.cls-4{stroke:#1d1d1b;stroke-miterlimit:10;stroke-width:2.11px;}.cls-4{stroke-linecap:round;}.cls-5{fill:#1d1d1b;}</style><clipPath id="clip-path" transform="translate(0)"><rect class="cls-1" width="110.02" height="110.02"/></clipPath></defs><g id="Layer_2" data-name="Layer 2"><g id="Layer_1-2" data-name="Layer 1"><g id="toothbrush"><g class="cls-2"><g class="cls-2"><rect class="cls-3" x="1.06" y="1.06" width="107.91" height="107.91" rx="13.72"/><path class="cls-4" d="M92.32,64.53H37V63.25a2.41,2.41,0,0,0-2.41-2.41H18.07a2.41,2.41,0,0,0-2.42,2.41v5.5a2.41,2.41,0,0,0,2.42,2.41H34.62A2.4,2.4,0,0,0,37,69H92.32a2.21,2.21,0,1,0,0-4.42Z" transform="translate(0)"/><line class="cls-4" x1="21.55" y1="60.84" x2="21.55" y2="52"/><line class="cls-4" x1="18.6" y1="60.84" x2="18.6" y2="52"/><line class="cls-4" x1="24.5" y1="60.84" x2="24.5" y2="52"/><line class="cls-4" x1="27.45" y1="60.84" x2="27.45" y2="52"/><line class="cls-4" x1="30.4" y1="60.84" x2="30.4" y2="52"/><line class="cls-4" x1="33.34" y1="60.84" x2="33.34" y2="52"/><path class="cls-5" d="M27.45,49.78H23a2.21,2.21,0,1,1,0-4.42h4.42a2.21,2.21,0,1,1,0,4.42" transform="translate(0)"/><path class="cls-4" d="M27.45,49.78H23a2.21,2.21,0,1,1,0-4.42h4.42a2.21,2.21,0,1,1,0,4.42Z" transform="translate(0)"/></g></g></g></g></g></svg>